#N canvas 0 19 885 717 12;
#X declare -lib Gem;
#X obj 77 18 declare -lib Gem;
#X obj 592 87 gemwin;
#X msg 592 60 create \, 1;
#X obj 65 80 gemhead;
#X obj 60 254 rotateXYZ;
#X obj 62 142 pix_video;
#X obj 61 222 pix_texture;
#X obj 60 294 square 3;
#X obj 229 40 tgl 20 0 empty empty empty 0 -10 0 12 #fcfcfc #000000 #000000 0 1;
#X msg 148 222 0;
#X obj 61 178 pix_resize;
#X msg 155 188 quality 0;
#X obj 223 120 pix_data;
#X obj 251 147 unpack 0 0 0 0;
#X floatatom 230 190 5 0 0 0 - - - 0;
#X floatatom 269 189 5 0 0 0 - - - 0;
#X floatatom 310 186 5 0 0 0 - - - 0;
#X floatatom 359 185 5 0 0 0 - - - 0;
#X obj 234 217 vsl 20 170 0 1 0 0 empty empty empty 0 -9 0 12 #ff0400 #000000 #000000 0 1;
#X obj 270 214 vsl 20 170 0 1 0 0 empty empty empty 0 -9 0 12 #00ff04 #000000 #000000 0 1;
#X obj 311 217 vsl 20 170 0 1 0 0 empty empty empty 0 -9 0 12 #0400ff #000000 #000000 0 1;
#X obj 231 80 metro 10;
#X obj 397 116 pix_data;
#X obj 425 143 unpack 0 0 0 0;
#X floatatom 404 186 5 0 0 0 - - - 0;
#X floatatom 443 185 5 0 0 0 - - - 0;
#X floatatom 484 182 5 0 0 0 - - - 0;
#X floatatom 533 181 5 0 0 0 - - - 0;
#X obj 408 213 vsl 20 170 0 1 0 0 empty empty empty 0 -9 0 12 #ff0400 #000000 #000000 0 1;
#X obj 444 210 vsl 20 170 0 1 0 0 empty empty empty 0 -9 0 12 #00ff04 #000000 #000000 0 1;
#X obj 485 213 vsl 20 170 0 1 0 0 empty empty empty 0 -9 0 12 #0400ff #000000 #000000 0 1;
#X obj 223 415 pix_data;
#X obj 251 442 unpack 0 0 0 0;
#X floatatom 230 485 5 0 0 0 - - - 0;
#X floatatom 269 484 5 0 0 0 - - - 0;
#X floatatom 310 481 5 0 0 0 - - - 0;
#X floatatom 359 480 5 0 0 0 - - - 0;
#X obj 234 512 vsl 20 170 0 1 0 0 empty empty empty 0 -9 0 12 #ff0400 #000000 #000000 0 1;
#X obj 270 509 vsl 20 170 0 1 0 0 empty empty empty 0 -9 0 12 #00ff04 #000000 #000000 0 1;
#X obj 311 512 vsl 20 170 0 1 0 0 empty empty empty 0 -9 0 12 #0400ff #000000 #000000 0 1;
#X obj 397 411 pix_data;
#X obj 425 438 unpack 0 0 0 0;
#X floatatom 404 481 5 0 0 0 - - - 0;
#X floatatom 443 480 5 0 0 0 - - - 0;
#X floatatom 484 477 5 0 0 0 - - - 0;
#X floatatom 533 476 5 0 0 0 - - - 0;
#X obj 408 508 vsl 20 170 0 1 0 0 empty empty empty 0 -9 0 12 #ff0400 #000000 #000000 0 1;
#X obj 444 505 vsl 20 170 0 1 0 0 empty empty empty 0 -9 0 12 #00ff04 #000000 #000000 0 1;
#X obj 485 508 vsl 20 170 0 1 0 0 empty empty empty 0 -9 0 12 #0400ff #000000 #000000 0 1;
#X msg 135 148 dimen 2 2;
#X msg 436 50 1 0;
#X msg 529 53 1 1;
#X msg 480 53 0 1;
#X obj 471 28 loadbang;
#X connect 2 0 1 0;
#X connect 3 0 5 0;
#X connect 4 0 7 0;
#X connect 5 0 10 0;
#X connect 6 0 4 0;
#X connect 8 0 21 0;
#X connect 9 0 4 3;
#X connect 10 0 6 0;
#X connect 10 0 12 1;
#X connect 10 0 22 1;
#X connect 10 0 31 1;
#X connect 10 0 40 1;
#X connect 11 0 6 0;
#X connect 12 1 13 0;
#X connect 13 0 14 0;
#X connect 13 1 15 0;
#X connect 13 2 16 0;
#X connect 13 3 17 0;
#X connect 14 0 18 0;
#X connect 15 0 19 0;
#X connect 16 0 20 0;
#X connect 21 0 12 0;
#X connect 21 0 22 0;
#X connect 21 0 31 0;
#X connect 21 0 40 0;
#X connect 22 1 23 0;
#X connect 23 0 24 0;
#X connect 23 1 25 0;
#X connect 23 2 26 0;
#X connect 23 3 27 0;
#X connect 24 0 28 0;
#X connect 25 0 29 0;
#X connect 26 0 30 0;
#X connect 31 1 32 0;
#X connect 32 0 33 0;
#X connect 32 1 34 0;
#X connect 32 2 35 0;
#X connect 32 3 36 0;
#X connect 33 0 37 0;
#X connect 34 0 38 0;
#X connect 35 0 39 0;
#X connect 40 1 41 0;
#X connect 41 0 42 0;
#X connect 41 1 43 0;
#X connect 41 2 44 0;
#X connect 41 3 45 0;
#X connect 42 0 46 0;
#X connect 43 0 47 0;
#X connect 44 0 48 0;
#X connect 49 0 10 0;
#X connect 50 0 22 0;
#X connect 51 0 40 0;
#X connect 52 0 31 0;
#X connect 53 0 52 0;
#X connect 53 0 51 0;
#X connect 53 0 50 0;
#X connect 53 0 49 0;
#X connect 53 0 11 0;
#X connect 53 0 9 0;
