#N canvas 0 19 749 717 12;
#X declare -lib Gem;
#X obj 16 23 declare -lib Gem;
#X msg 827 108 create \, 1;
#X obj 829 150 gemwin;
#X obj 27 145 pix_video;
#X obj 30 84 gemhead;
#X obj 98 318 pix_texture;
#X obj 27 172 pix_resize;
#X msg 98 269 quality 0;
#X obj 108 196 pix_delay;
#X obj 27 221 pix_subtract;
#X obj 27 247 pix_threshold;
#X obj 27 270 pix_2grey;
#X msg 168 171 1;
#X obj 247 300 pix_pix2sig~;
#X obj 266 336 tabsend~ line1;
#X msg 251 274 mode waterfall 0;
#X obj 101 348 square 3;
#X obj 35 531 array max line1;
#X obj 48 109 s fb;
#X obj 35 480 r fb;
#X obj 35 505 bang;
#X floatatom 35 691 5 0 0 0 - - - 0;
#X obj 36 664 line;
#X obj 722 729 hsl 170 20 0 7 0 0 empty empty empty -2 -10 0 12 #fcfcfc #000000 #000000 0 1;
#X obj 377 303 pix_pix2sig~;
#X msg 381 277 mode waterfall 1;
#X obj 396 339 tabsend~ line2;
#X obj 722 754 hsl 170 20 0 7 0 0 empty empty empty -2 -10 0 12 #fcfcfc #000000 #000000 0 1;
#X obj 721 778 hsl 170 20 0 7 0 0 empty empty empty -2 -10 0 12 #fcfcfc #000000 #000000 0 1;
#X obj 721 800 hsl 170 20 0 7 0 0 empty empty empty -2 -10 0 12 #fcfcfc #000000 #000000 0 1;
#X obj 502 308 pix_pix2sig~;
#X obj 632 311 pix_pix2sig~;
#X msg 506 282 mode waterfall 2;
#X msg 636 285 mode waterfall 3;
#X obj 521 344 tabsend~ line3;
#X obj 651 347 tabsend~ line4;
#X msg 87 110 dimen 8 8;
#X obj 761 310 pix_pix2sig~;
#X obj 891 313 pix_pix2sig~;
#X obj 1016 318 pix_pix2sig~;
#X obj 1146 321 pix_pix2sig~;
#X msg 765 284 mode waterfall 4;
#X msg 895 287 mode waterfall 5;
#X msg 1020 292 mode waterfall 6;
#X msg 1150 295 mode waterfall 7;
#X obj 722 827 hsl 170 20 0 7 0 0 empty empty empty -2 -10 0 12 #fcfcfc #000000 #000000 0 1;
#X obj 722 847 hsl 170 20 0 7 0 0 empty empty empty -2 -10 0 12 #fcfcfc #000000 #000000 0 1;
#X obj 721 874 hsl 170 20 0 7 0 0 empty empty empty -2 -10 0 12 #fcfcfc #000000 #000000 0 1;
#X obj 721 896 hsl 170 20 0 7 0 0 empty empty empty -2 -10 0 12 #fcfcfc #000000 #000000 0 1;
#X obj 780 346 tabsend~ line5;
#X obj 910 350 tabsend~ line6;
#X obj 1035 354 tabsend~ line7;
#X obj 1165 357 tabsend~ line8;
#X obj 34 558 > 0;
#X obj 33 610 spigot;
#X obj 35 584 swap;
#X obj 154 476 r fb;
#X obj 154 501 bang;
#X floatatom 154 687 5 0 0 0 - - - 0;
#X obj 155 660 line;
#X obj 153 554 > 0;
#X obj 152 606 spigot;
#X obj 154 580 swap;
#X obj 154 527 array max line2;
#X obj 271 475 r fb;
#X obj 271 500 bang;
#X floatatom 271 686 5 0 0 0 - - - 0;
#X obj 272 659 line;
#X obj 270 553 > 0;
#X obj 269 605 spigot;
#X obj 271 579 swap;
#X obj 390 471 r fb;
#X obj 390 496 bang;
#X floatatom 397 690 5 0 0 0 - - - 0;
#X obj 391 655 line;
#X obj 389 549 > 0;
#X obj 388 601 spigot;
#X obj 390 575 swap;
#X obj 271 528 array max line3;
#X obj 390 523 array max line4;
#X obj 514 470 r fb;
#X obj 514 495 bang;
#X floatatom 515 683 5 0 0 0 - - - 0;
#X obj 515 654 line;
#X obj 513 548 > 0;
#X obj 512 600 spigot;
#X obj 514 574 swap;
#X obj 633 466 r fb;
#X obj 633 491 bang;
#X floatatom 634 679 5 0 0 0 - - - 0;
#X obj 634 650 line;
#X obj 632 544 > 0;
#X obj 631 596 spigot;
#X obj 633 570 swap;
#X obj 750 465 r fb;
#X obj 750 490 bang;
#X floatatom 751 678 5 0 0 0 - - - 0;
#X obj 751 649 line;
#X obj 749 543 > 0;
#X obj 748 595 spigot;
#X obj 750 569 swap;
#X obj 869 461 r fb;
#X obj 869 486 bang;
#X floatatom 868 672 5 0 0 0 - - - 0;
#X obj 868 643 line;
#X obj 868 539 > 0;
#X obj 867 591 spigot;
#X obj 869 565 swap;
#X obj 514 521 array max line5;
#X obj 633 517 array max line6;
#X obj 750 519 array max line7;
#X obj 869 513 array max line8;
#X obj 223 721 sig~;
#X obj 259 722 sig~;
#X obj 296 723 sig~;
#X obj 333 725 sig~;
#X obj 369 725 sig~;
#X obj 404 725 sig~;
#X obj 439 725 sig~;
#X obj 475 726 sig~;
#X obj 223 762 +~;
#X obj 321 897 hsl 170 20 0 1 0 0 empty empty empty -2 -10 0 12 #fcfcfc #000000 #000000 0 1;
#X obj 275 923 snapshot~;
#X obj 275 870 r fb;
#X obj 275 897 bang;
#X obj 219 897 lop~ 10;
#X obj 220 846 *~ -1;
#X obj 220 869 +~ 1;
#N canvas 0 0 954 736 array 0;
#X obj 588 14 array define line1 8;
#X obj 589 39 array define line2 8;
#X obj 589 66 array define line3 8;
#X obj 590 91 array define line4 8;
#X obj 740 16 array define line5 8;
#X obj 741 41 array define line6 8;
#X obj 740 68 array define line7 8;
#X obj 742 93 array define line8 8;
#X restore 791 56 pd array;
#X obj 252 237 loadbang;
#X obj 221 816 /~ 7;
#X obj 316 873 line;
#X obj 222 789 /~ 8;
#X msg 35 636 \$1 200;
#X msg 154 632 \$1 200;
#X msg 271 632 \$1 200;
#X msg 390 627 \$1 200;
#X msg 514 626 \$1 200;
#X msg 633 622 \$1 200;
#X msg 750 621 \$1 200;
#X msg 868 617 \$1 200;
#X obj 87 83 loadbang;
#X msg 314 847 \$1 200;
#X connect 1 0 2 0;
#X connect 3 0 6 0;
#X connect 4 0 3 0;
#X connect 4 0 18 0;
#X connect 5 0 16 0;
#X connect 6 0 8 0;
#X connect 6 0 9 0;
#X connect 7 0 5 0;
#X connect 8 0 9 1;
#X connect 9 0 10 0;
#X connect 10 0 11 0;
#X connect 11 0 13 0;
#X connect 11 0 24 0;
#X connect 11 0 30 0;
#X connect 11 0 31 0;
#X connect 11 0 37 0;
#X connect 11 0 38 0;
#X connect 11 0 39 0;
#X connect 11 0 40 0;
#X connect 12 0 8 1;
#X connect 13 0 5 0;
#X connect 13 1 14 0;
#X connect 15 0 13 0;
#X connect 17 0 53 0;
#X connect 17 1 55 1;
#X connect 19 0 20 0;
#X connect 20 0 17 0;
#X connect 21 0 23 0;
#X connect 21 0 112 0;
#X connect 22 0 21 0;
#X connect 24 1 26 0;
#X connect 25 0 24 0;
#X connect 30 1 34 0;
#X connect 31 1 35 0;
#X connect 32 0 30 0;
#X connect 33 0 31 0;
#X connect 36 0 6 0;
#X connect 37 1 49 0;
#X connect 38 1 50 0;
#X connect 39 1 51 0;
#X connect 40 1 52 0;
#X connect 41 0 37 0;
#X connect 42 0 38 0;
#X connect 43 0 39 0;
#X connect 44 0 40 0;
#X connect 53 0 55 0;
#X connect 54 0 133 0;
#X connect 55 0 54 0;
#X connect 55 1 54 1;
#X connect 56 0 57 0;
#X connect 57 0 63 0;
#X connect 58 0 27 0;
#X connect 58 0 113 0;
#X connect 59 0 58 0;
#X connect 60 0 62 0;
#X connect 61 0 134 0;
#X connect 62 0 61 0;
#X connect 62 1 61 1;
#X connect 63 0 60 0;
#X connect 63 1 62 1;
#X connect 64 0 65 0;
#X connect 65 0 78 0;
#X connect 66 0 28 0;
#X connect 66 0 114 0;
#X connect 67 0 66 0;
#X connect 68 0 70 0;
#X connect 69 0 135 0;
#X connect 70 0 69 0;
#X connect 70 1 69 1;
#X connect 71 0 72 0;
#X connect 72 0 79 0;
#X connect 73 0 29 0;
#X connect 73 0 115 0;
#X connect 74 0 73 0;
#X connect 75 0 77 0;
#X connect 76 0 136 0;
#X connect 77 0 76 0;
#X connect 77 1 76 1;
#X connect 78 0 68 0;
#X connect 78 1 70 1;
#X connect 79 0 75 0;
#X connect 79 1 77 1;
#X connect 80 0 81 0;
#X connect 81 0 108 0;
#X connect 82 0 45 0;
#X connect 82 0 116 0;
#X connect 83 0 82 0;
#X connect 84 0 86 0;
#X connect 85 0 137 0;
#X connect 86 0 85 0;
#X connect 86 1 85 1;
#X connect 87 0 88 0;
#X connect 88 0 109 0;
#X connect 89 0 46 0;
#X connect 89 0 117 0;
#X connect 90 0 89 0;
#X connect 91 0 93 0;
#X connect 92 0 138 0;
#X connect 93 0 92 0;
#X connect 93 1 92 1;
#X connect 94 0 95 0;
#X connect 95 0 110 0;
#X connect 96 0 47 0;
#X connect 96 0 118 0;
#X connect 97 0 96 0;
#X connect 98 0 100 0;
#X connect 99 0 139 0;
#X connect 100 0 99 0;
#X connect 100 1 99 1;
#X connect 101 0 102 0;
#X connect 102 0 111 0;
#X connect 103 0 48 0;
#X connect 103 0 119 0;
#X connect 104 0 103 0;
#X connect 105 0 107 0;
#X connect 106 0 140 0;
#X connect 107 0 106 0;
#X connect 107 1 106 1;
#X connect 108 0 84 0;
#X connect 108 1 86 1;
#X connect 109 0 91 0;
#X connect 109 1 93 1;
#X connect 110 0 98 0;
#X connect 110 1 100 1;
#X connect 111 0 105 0;
#X connect 111 1 107 1;
#X connect 112 0 120 0;
#X connect 113 0 120 0;
#X connect 114 0 120 0;
#X connect 115 0 120 0;
#X connect 116 0 120 0;
#X connect 117 0 120 0;
#X connect 118 0 120 0;
#X connect 119 0 120 0;
#X connect 120 0 132 0;
#X connect 122 0 142 0;
#X connect 123 0 124 0;
#X connect 124 0 122 0;
#X connect 125 0 122 0;
#X connect 126 0 127 0;
#X connect 127 0 125 0;
#X connect 129 0 15 0;
#X connect 129 0 44 0;
#X connect 129 0 43 0;
#X connect 129 0 42 0;
#X connect 129 0 41 0;
#X connect 129 0 33 0;
#X connect 129 0 32 0;
#X connect 129 0 25 0;
#X connect 130 0 126 0;
#X connect 131 0 121 0;
#X connect 132 0 130 0;
#X connect 133 0 22 0;
#X connect 134 0 59 0;
#X connect 135 0 67 0;
#X connect 136 0 74 0;
#X connect 137 0 83 0;
#X connect 138 0 90 0;
#X connect 139 0 97 0;
#X connect 140 0 104 0;
#X connect 141 0 36 0;
#X connect 141 0 12 0;
#X connect 142 0 131 0;
